{
.appVersion = "3337";
.formatVersion = 3;
DisplayStrings = (
" Eabcdefghijklmnopqrstuvwxyz",
"This is something elseDEZ",
"HAZE ABCDEFGHIJKLMNOPQRSTUVWXYZabcdefghijklmnopqrstuvwxyz0123456789 .,-/_cap.flag/_corner.leftBottomSerif/_corner.rightBottomSerif"
);
date = "2025-02-21 16:21:33 +0000";
familyName = "Lateinisch-ish";
fontMaster = (
{
id = m01;
metricValues = (
{
over = 16;
pos = 800;
},
{
over = 16;
pos = 752;
},
{
over = 11;
pos = 494;
},
{
over = -16;
},
{
over = -16;
pos = -254;
},
{
},
{
pos = 708;
}
);
name = Regular;
userData = {
GSCornerRadius = 20;
};
}
);
glyphs = (
{
glyphname = A;
lastChange = "2025-03-03 21:30:29 +0000";
layers = (
{
hints = (
{
name = _corner.leftBottomSerif;
origin = (0,21);
type = Corner;
},
{
name = _corner.rightBottomSerif;
options = 1;
origin = (0,22);
type = Corner;
},
{
name = _corner.rightBottomSerif;
origin = (0,0);
scale = (1,-1);
type = Corner;
},
{
name = _corner.leftBottomSerif;
options = 1;
origin = (0,1);
scale = (1,-1);
type = Corner;
}
);
layerId = m01;
shapes = (
{
closed = 1;
nodes = (
(610,0,l),
(691,0,l),
(475,661,ls),
(456,720,o),
(449,762,o),
(419,762,cs),
(395,762,o),
(392,742,o),
(375,729,cs),
(352,711,o),
(325,708,o),
(314,708,cs),
(304,708,o),
(299,702,o),
(299,695,cs),
(299,689,o),
(304,682,o),
(314,682,cs),
(353,682,o),
(358,665,o),
(352,649,cs),
(104,0,l),
(159,0,l),
(417,689,l),
(391,689,l)
);
},
{
closed = 1;
nodes = (
(233,242,l),
(546,242,l),
(546,281,l),
(233,281,l)
);
}
);
width = 797;
}
);
unicode = 65;
},
{
glyphname = B;
lastChange = "2025-03-04 02:52:25 +0000";
layers = (
{
backgroundImage = {
imagePath = "specimen-images/12pt-capB.jpg";
locked = 1;
pos = (20,-214);
scale = (10.7,10.7);
};
hints = (
{
name = _corner.leftBottomSerif;
origin = (0,14);
type = Corner;
},
{
name = _corner.leftBottomSerif;
options = 1;
origin = (0,13);
scale = (-1,1);
type = Corner;
}
);
layerId = m01;
shapes = (
{
closed = 1;
nodes = (
(362,-2,l),
(524,-4,o),
(656,66,o),
(656,209,cs),
(656,321,o),
(570,386,o),
(454,407,c),
(540,430,o),
(601,486,o),
(601,577,cs),
(601,699,o),
(485,755,o),
(343,754,cs),
(123,752,l),
(123,0,l)
);
},
{
closed = 1;
nodes = (
(203,707,l),
(203,721,l),
(343,723,ls),
(456,725,o),
(540,694,o),
(540,583,cs),
(540,443,o),
(456,425,o),
(343,425,cs),
(203,426,l)
);
},
{
closed = 1;
nodes = (
(203,44,l),
(203,389,l),
(362,391,ls),
(491,393,o),
(587,341,o),
(587,216,cs),
(587,56,o),
(491,34,o),
(362,34,cs),
(203,34,l)
);
}
);
width = 706;
}
);
unicode = 66;
},
{
glyphname = C;
lastChange = "2025-03-05 03:06:25 +0000";
layers = (
{
backgroundImage = {
imagePath = "specimen-images/12pt-capC.jpg";
locked = 1;
pos = (50,-227);
scale = (10.7,10.7);
};
layerId = m01;
shapes = (
{
closed = 1;
nodes = (
(733,686,l),
(662,756,o),
(565,768,o),
(464,768,cs),
(262,768,o),
(98,602,o),
(98,377,cs),
(98,152,o),
(262,-14,o),
(464,-14,cs),
(565,-14,o),
(662,-2,o),
(733,68,c),
(733,189,l),
(733,200,o),
(719,205,o),
(712,189,cs),
(661,74,o),
(578,26,o),
(464,26,cs),
(302,26,o),
(183,174,o),
(183,377,cs),
(183,580,o),
(302,728,o),
(464,728,cs),
(578,728,o),
(662,681,o),
(712,565,cs),
(719,549,o),
(733,556,o),
(733,565,c)
);
}
);
width = 831;
}
);
unicode = 67;
},
{
glyphname = D;
lastChange = "2025-03-03 21:57:49 +0000";
layers = (
{
backgroundImage = {
imagePath = "specimen-images/12pt-capD.jpg";
locked = 1;
pos = (37,-220);
scale = (10.7,10.7);
};
hints = (
{
name = _corner.leftBottomSerif;
origin = (0,0);
type = Corner;
},
{
name = _corner.leftBottomSerif;
options = 1;
origin = (0,9);
scale = (-1,1);
type = Corner;
}
);
layerId = m01;
shapes = (
{
closed = 1;
nodes = (
(133,0,l),
(265,0,l),
(411,-3,ls),
(612,-7,o),
(776,156,o),
(776,381,cs),
(776,596,o),
(612,757,o),
(411,755,cs),
(133,752,l)
);
},
{
closed = 1;
nodes = (
(213,707,l),
(411,710,ls),
(571,712,o),
(690,576,o),
(691,383,cs),
(690,130,o),
(571,42,o),
(411,42,c),
(213,44,l)
);
}
);
width = 830;
}
);
metricLeft = "=H";
metricRight = "=O";
unicode = 68;
},
{
glyphname = E;
lastChange = "2025-03-06 17:20:01 +0000";
layers = (
{
backgroundImage = {
imagePath = "specimen-images/12pt-capE.jpg";
locked = 1;
pos = (13,-219);
scale = (10.7,10.7);
};
hints = (
{
name = _corner.rightBottomSerif;
origin = (0,51);
type = Corner;
},
{
name = _corner.leftBottomSerif;
origin = (0,54);
type = Corner;
},
{
name = _corner.rightBottomSerif;
origin = (0,52);
type = Corner;
}
);
layerId = m01;
shapes = (
{
closed = 1;
nodes = (
(605,0,ls),
(611,0,o),
(615,3,o),
(616,8,cs),
(626,53,o),
(641,99,o),
(660,140,cs),
(666,153,o),
(648,165,o),
(639,153,cs),
(591,92,o),
(541,38,o),
(521,38,cs),
(206,32,l),
(209,427,l),
(209,426,l),
(421,423,ls),
(476,422,o),
(505,397,o),
(505,361,cs),
(505,345,o),
(529,345,o),
(529,361,cs),
(529,397,o),
(527,401,o),
(527,449,cs),
(527,483,o),
(529,488,o),
(529,524,cs),
(529,540,o),
(505,540,o),
(505,524,cs),
(505,488,o),
(476,463,o),
(421,462,cs),
(209,459,l),
(209,718,l),
(487,718,ls),
(517,718,o),
(554,688,o),
(602,627,cs),
(611,615,o),
(629,627,o),
(623,640,cs),
(608,673,o),
(599,709,o),
(592,746,cs),
(591,751,o),
(587,754,o),
(581,754,cs),
(581,754,o),
(127,752,o),
(127,752,c),
(127,48,l),
(132,0,l)
);
}
);
width = 711;
}
);
metricLeft = "=H";
unicode = 69;
},
{
glyphname = F;
lastChange = "2025-03-03 21:30:29 +0000";
layers = (
{
backgroundImage = {
imagePath = "specimen-images/12pt-capF.jpg";
locked = 1;
pos = (19,-220);
scale = (10.7,10.7);
};
hints = (
{
name = _corner.rightBottomSerif;
origin = (0,37);
type = Corner;
},
{
name = _corner.rightBottomSerif;
origin = (0,37);
type = Corner;
},
{
name = _corner.leftBottomSerif;
origin = (0,40);
type = Corner;
},
{
name = _corner.rightBottomSerif;
origin = (0,0);
type = Corner;
},
{
name = _corner.rightBottomSerif;
origin = (0,38);
type = Corner;
}
);
layerId = m01;
shapes = (
{
closed = 1;
nodes = (
(200,0,l),
(198,424,l),
(420,421,ls),
(462,420,o),
(501,397,o),
(501,358,cs),
(501,345,o),
(522,345,o),
(522,358,cs),
(522,397,o),
(520,401,o),
(520,449,cs),
(520,483,o),
(522,488,o),
(522,527,cs),
(522,540,o),
(501,540,o),
(501,527,cs),
(501,488,o),
(462,465,o),
(420,464,cs),
(198,461,l),
(199,713,l),
(481,713,ls),
(511,713,o),
(548,688,o),
(596,627,cs),
(605,615,o),
(623,627,o),
(617,640,cs),
(602,673,o),
(593,709,o),
(586,746,cs),
(585,751,o),
(581,754,o),
(575,754,cs),
(575,754,o),
(123,752,o),
(123,752,c),
(123,48,l),
(124,0,l)
);
}
);
width = 668;
}
);
unicode = 70;
},
{
glyphname = G;
lastChange = "2025-03-05 03:16:05 +0000";
layers = (
{
backgroundImage = {
imagePath = "specimen-images/12pt-capG.jpg";
locked = 1;
pos = (-54,-223);
scale = (10.7,10.7);
};
hints = (
{
name = _corner.rightBottomSerif;
options = 1;
origin = (2,1);
scale = (1,-1);
type = Corner;
},
{
name = _corner.leftBottomSerif;
options = 1;
origin = (2,2);
scale = (-1,1);
type = Corner;
}
);
layerId = m01;
shapes = (
{
closed = 1;
nodes = (
(93,377,l),
(93,580,o),
(223,728,o),
(385,728,cs),
(495,728,o),
(561,677,o),
(611,561,cs),
(618,545,o),
(633,552,o),
(633,561,c),
(633,682,l),
(562,752,o),
(481,768,o),
(384,768,cs),
(182,768,o),
(8,602,o),
(8,377,c)
);
},
{
closed = 1;
nodes = (
(623,99,l),
(588,53,o),
(531,26,o),
(394,26,cs),
(232,26,o),
(93,174,o),
(93,377,cs),
(93,377,o),
(93,377,o),
(93,377,cs),
(8,377,ls),
(8,377,o),
(8,377,o),
(8,377,cs),
(8,152,o),
(192,-14,o),
(394,-14,cs),
(541,-14,o),
(617,17,o),
(668,64,c)
);
},
{
closed = 1;
nodes = (
(668,64,l),
(668,444,l),
(598,444,l),
(598,64,l)
);
}
);
width = 744;
}
);
unicode = 71;
},
{
glyphname = H;
lastChange = "2025-03-05 18:56:12 +0000";
layers = (
{
backgroundImage = {
imagePath = "specimen-images/12pt-capH.jpg";
locked = 1;
pos = (10,-219);
scale = (10.7,10.7);
};
hints = (
{
name = _corner.leftBottomSerif;
origin = (0,0);
type = Corner;
},
{
name = _corner.rightBottomSerif;
origin = (0,1);
type = Corner;
},
{
name = _corner.leftBottomSerif;
origin = (1,0);
type = Corner;
},
{
name = _corner.rightBottomSerif;
origin = (1,1);
type = Corner;
},
{
name = _corner.leftBottomSerif;
origin = (0,0);
type = Corner;
},
{
name = _corner.leftBottomSerif;
options = 1;
origin = (0,3);
scale = (-1,1);
type = Corner;
},
{
name = _corner.rightBottomSerif;
options = 1;
origin = (0,2);
scale = (1,-1);
type = Corner;
},
{
name = _corner.leftBottomSerif;
options = 1;
origin = (1,0);
scale = (1,-1);
type = Corner;
},
{
name = _corner.leftBottomSerif;
options = 1;
origin = (1,3);
scale = (1,-1);
type = Corner;
},
{
name = _corner.rightBottomSerif;
options = 1;
origin = (1,2);
scale = (1,-1);
type = Corner;
}
);
layerId = m01;
shapes = (
{
closed = 1;
nodes = (
(112,0,l),
(192,0,l),
(192,752,l),
(112,752,l)
);
},
{
closed = 1;
nodes = (
(612,0,l),
(693,0,l),
(693,752,l),
(612,752,l)
);
},
{
closed = 1;
nodes = (
(176,425,l),
(636,425,l),
(636,468,l),
(176,468,l)
);
}
);
width = 806;
}
);
metricRight = "=|";
unicode = 72;
},
{
glyphname = I;
lastChange = "2025-03-05 03:07:39 +0000";
layers = (
{
backgroundImage = {
imagePath = "specimen-images/12pt-capI.jpg";
pos = (15,-223);
scale = (10.7,10.7);
};
hints = (
{
name = _corner.leftBottomSerif;
origin = (0,0);
type = Corner;
},
{
name = _corner.rightBottomSerif;
origin = (0,1);
type = Corner;
},
{
name = _corner.rightBottomSerif;
options = 1;
origin = (0,2);
scale = (1,-1);
type = Corner;
},
{
name = _corner.leftBottomSerif;
options = 1;
origin = (0,3);
scale = (-1,1);
type = Corner;
}
);
layerId = m01;
shapes = (
{
closed = 1;
nodes = (
(122,0,l),
(202,0,l),
(202,752,l),
(122,752,l)
);
}
);
width = 320;
}
);
unicode = 73;
},
{
glyphname = J;
lastChange = "2025-03-04 02:58:10 +0000";
layers = (
{
backgroundImage = {
imagePath = "specimen-images/12pt-capJ.jpg";
pos = (-13,-233);
scale = (10.7,10.7);
};
layerId = m01;
shapes = (
{
closed = 1;
nodes = (
(20,291,l),
(350,291,l),
(350,434,l),
(20,434,l)
);
}
);
width = 370;
}
);
unicode = 74;
},
{
glyphname = K;
lastChange = "2025-03-04 02:58:24 +0000";
layers = (
{
backgroundImage = {
imagePath = "specimen-images/12pt-capK.jpg";
pos = (-119,-220);
scale = (10.7,10.7);
};
layerId = m01;
shapes = (
{
closed = 1;
nodes = (
(20,291,l),
(575,291,l),
(575,434,l),
(20,434,l)
);
}
);
width = 595;
}
);
unicode = 75;
},
{
glyphname = L;
lastChange = "2025-03-03 21:30:29 +0000";
layers = (
{
backgroundImage = {
imagePath = "specimen-images/12pt-capL.jpg";
locked = 1;
pos = (26,-218);
scale = (10.7,10.7);
};
hints = (
{
name = _corner.rightBottomSerif;
origin = (0,15);
type = Corner;
},
{
name = _corner.rightBottomSerif;
origin = (0,15);
type = Corner;
},
{
name = _corner.leftBottomSerif;
origin = (0,17);
type = Corner;
},
{
name = _corner.leftBottomSerif;
origin = (0,14);
type = Corner;
}
);
layerId = m01;
shapes = (
{
closed = 1;
nodes = (
(561,0,ls),
(567,0,o),
(571,3,o),
(572,8,cs),
(582,53,o),
(597,99,o),
(616,140,cs),
(622,153,o),
(604,165,o),
(595,153,cs),
(547,92,o),
(497,48,o),
(477,48,cs),
(197,42,l),
(200,752,l),
(123,752,l),
(123,48,l),
(124,0,l)
);
}
);
width = 667;
}
);
unicode = 76;
},
{
glyphname = M;
lastChange = "2025-03-04 02:58:47 +0000";
layers = (
{
backgroundImage = {
imagePath = "specimen-images/12pt-capM.jpg";
pos = (-29,-220);
scale = (10.7,10.7);
};
layerId = m01;
shapes = (
{
closed = 1;
nodes = (
(20,291,l),
(846,291,l),
(846,434,l),
(20,434,l)
);
}
);
width = 866;
}
);
unicode = 77;
},
{
glyphname = N;
lastChange = "2025-03-03 21:30:29 +0000";
layers = (
{
backgroundImage = {
imagePath = "specimen-images/10pt-capN.jpg";
locked = 1;
pos = (20,-334);
scale = (12.934,12.934);
};
hints = (
{
name = _corner.leftBottomSerif;
origin = (0,0);
type = Corner;
},
{
name = _corner.rightBottomSerif;
options = 1;
origin = (0,1);
type = Corner;
},
{
name = _corner.leftBottomSerif;
origin = (2,0);
type = Corner;
},
{
name = _corner.rightBottomSerif;
options = 1;
origin = (2,1);
type = Corner;
}
);
layerId = m01;
shapes = (
{
closed = 1;
nodes = (
(145,0,l),
(195,0,l),
(192,742,l),
(142,742,l)
);
},
{
closed = 1;
nodes = (
(667,126,l),
(205,750,l),
(190,750,o),
(174,747,o),
(159,747,c),
(123,747,o),
(105,752,o),
(66,752,c),
(45,752,o),
(45,720,o),
(66,720,c),
(105,720,o),
(142,710,o),
(151,697,c),
(667,0,l)
);
},
{
closed = 1;
nodes = (
(714,752,l),
(664,752,l),
(667,0,l),
(717,0,l)
);
}
);
width = 836;
}
);
unicode = 78;
},
{
glyphname = O;
lastChange = "2025-03-05 18:56:40 +0000";
layers = (
{
backgroundImage = {
imagePath = "specimen-images/12pt-capO.jpg";
pos = (18960,817);
scale = (10.7,10.7);
};
layerId = m01;
shapes = (
{
closed = 1;
nodes = (
(681,174,o),
(562,26,o),
(401,26,cs),
(239,26,o),
(120,174,o),
(120,377,cs),
(120,580,o),
(239,728,o),
(401,728,cs),
(562,728,o),
(681,580,o),
(681,377,cs)
);
},
{
closed = 1;
nodes = (
(35,152,o),
(199,-14,o),
(401,-14,cs),
(602,-14,o),
(766,152,o),
(766,377,cs),
(766,602,o),
(602,768,o),
(401,768,cs),
(199,768,o),
(35,602,o),
(35,377,cs)
);
}
);
width = 801;
}
);
metricRight = "=|";
unicode = 79;
},
{
glyphname = P;
lastChange = "2025-03-04 02:59:20 +0000";
layers = (
{
backgroundImage = {
imagePath = "specimen-images/12pt-capP.jpg";
pos = (-30,-219);
scale = (10.7,10.7);
};
layerId = m01;
shapes = (
{
closed = 1;
nodes = (
(20,291,l),
(577,291,l),
(577,434,l),
(20,434,l)
);
}
);
width = 597;
}
);
unicode = 80;
},
{
glyphname = Q;
lastChange = "2025-03-04 02:59:36 +0000";
layers = (
{
backgroundImage = {
imagePath = "specimen-images/12pt-capQ.jpg";
pos = (-20,-215);
scale = (10.7,10.7);
};
layerId = m01;
shapes = (
{
closed = 1;
nodes = (
(20,291,l),
(846,291,l),
(846,434,l),
(20,434,l)
);
}
);
width = 866;
}
);
unicode = 81;
},
{
glyphname = R;
lastChange = "2025-03-04 02:59:54 +0000";
layers = (
{
backgroundImage = {
imagePath = "specimen-images/12pt-capR.jpg";
pos = (-50,-223);
scale = (10.7,10.7);
};
layerId = m01;
shapes = (
{
closed = 1;
nodes = (
(20,291,l),
(558,283,l),
(558,426,l),
(20,434,l)
);
}
);
width = 578;
}
);
unicode = 82;
},
{
glyphname = S;
lastChange = "2025-03-04 03:00:14 +0000";
layers = (
{
backgroundImage = {
imagePath = "specimen-images/12pt-capS.jpg";
pos = (-30,-223);
scale = (10.7,10.7);
};
layerId = m01;
shapes = (
{
closed = 1;
nodes = (
(20,291,l),
(492,291,l),
(492,434,l),
(20,434,l)
);
}
);
width = 512;
}
);
unicode = 83;
},
{
glyphname = T;
lastChange = "2025-03-03 21:30:29 +0000";
layers = (
{
backgroundImage = {
imagePath = "specimen-images/10pt-capT.jpg";
locked = 1;
pos = (8,-343);
scale = (12.84,12.84);
};
hints = (
{
name = _corner.leftBottomSerif;
origin = (0,32);
type = Corner;
},
{
name = _corner.rightBottomSerif;
options = 1;
origin = (0,33);
type = Corner;
}
);
layerId = m01;
shapes = (
{
closed = 1;
nodes = (
(486,718,ls),
(516,718,o),
(553,688,o),
(601,627,cs),
(610,615,o),
(628,627,o),
(622,640,cs),
(607,673,o),
(598,709,o),
(591,746,cs),
(590,751,o),
(586,754,o),
(580,754,c),
(499,753,o),
(418,751,o),
(337,751,cs),
(256,751,o),
(174,753,o),
(93,754,c),
(87,754,o),
(83,751,o),
(82,746,cs),
(75,709,o),
(66,673,o),
(51,640,cs),
(45,627,o),
(63,615,o),
(72,627,cs),
(120,688,o),
(157,718,o),
(187,718,cs),
(299,718,l),
(299,0,l),
(374,0,l),
(374,718,l)
);
}
);
width = 673;
}
);
unicode = 84;
},
{
glyphname = U;
lastChange = "2025-03-04 03:00:33 +0000";
layers = (
{
backgroundImage = {
imagePath = "specimen-images/10pt-capU.jpg";
pos = (-40,-327);
scale = (12.84,12.84);
};
layerId = m01;
shapes = (
{
closed = 1;
nodes = (
(20,291,l),
(686,291,l),
(686,434,l),
(20,434,l)
);
}
);
width = 706;
}
);
unicode = 85;
},
{
glyphname = V;
lastChange = "2025-03-04 02:18:36 +0000";
layers = (
{
backgroundImage = {
imagePath = "specimen-images/10pt-capV.jpg";
locked = 1;
pos = (-5,-330);
scale = (12.84,12.84);
};
hints = (
{
name = _corner.leftBottomSerif;
origin = (0,0);
type = Corner;
},
{
name = _corner.rightBottomSerif;
options = 1;
origin = (0,1);
type = Corner;
},
{
name = _corner.rightBottomSerif;
origin = (0,4);
scale = (1,-1);
type = Corner;
},
{
name = _corner.leftBottomSerif;
options = 1;
origin = (0,5);
scale = (1,-1);
type = Corner;
}
);
layerId = m01;
shapes = (
{
closed = 1;
nodes = (
(648,752,l),
(590,752,l),
(364,46,l),
(404,46,l),
(183,752,l),
(101,752,l),
(346,1,ls),
(355,-25,o),
(391,-19,o),
(397,0,cs)
);
}
);
width = 749;
}
);
metricRight = "=|";
unicode = 86;
},
{
glyphname = W;
lastChange = "2025-03-04 03:00:49 +0000";
layers = (
{
backgroundImage = {
imagePath = "specimen-images/10pt-capW.jpg";
pos = (-84,-334);
scale = (12.84,12.84);
};
layerId = m01;
shapes = (
{
closed = 1;
nodes = (
(20,291,l),
(813,291,l),
(813,434,l),
(20,434,l)
);
}
);
width = 833;
}
);
unicode = 87;
},
{
glyphname = X;
lastChange = "2025-03-04 03:01:08 +0000";
layers = (
{
backgroundImage = {
imagePath = "specimen-images/10pt-capX.jpg";
pos = (0,-332);
scale = (12.84,12.84);
};
layerId = m01;
shapes = (
{
closed = 1;
nodes = (
(20,291,l),
(651,291,l),
(651,434,l),
(20,434,l)
);
}
);
width = 671;
}
);
unicode = 88;
},
{
glyphname = Y;
lastChange = "2025-03-04 03:01:47 +0000";
layers = (
{
backgroundImage = {
imagePath = "specimen-images/10pt-capY.jpg";
pos = (-52,-332);
scale = (12.84,12.84);
};
layerId = m01;
shapes = (
{
closed = 1;
nodes = (
(20,291,l),
(579,289,l),
(579,432,l),
(20,434,l)
);
}
);
width = 599;
}
);
unicode = 89;
},
{
glyphname = Z;
lastChange = "2025-03-05 03:05:25 +0000";
layers = (
{
backgroundImage = {
imagePath = "specimen-images/10pt-capZ.jpg";
pos = (-30,-330);
scale = (12.84,12.84);
};
layerId = m01;
shapes = (
{
closed = 1;
nodes = (
(494,0,ls),
(500,0,o),
(504,3,o),
(505,8,cs),
(515,53,o),
(530,99,o),
(549,140,cs),
(555,153,o),
(537,165,o),
(528,153,cs),
(480,92,o),
(430,35,o),
(410,35,cs),
(105,35,l),
(551,752,l),
(103,754,ls),
(97,754,o),
(93,751,o),
(92,746,cs),
(85,709,o),
(76,673,o),
(61,640,cs),
(55,627,o),
(73,615,o),
(82,627,cs),
(130,688,o),
(167,718,o),
(197,718,cs),
(438,718,l),
(-9,0,l)
);
}
);
width = 553;
}
);
unicode = 90;
},
{
glyphname = a;
lastChange = "2025-03-03 21:30:29 +0000";
layers = (
{
backgroundImage = {
imagePath = "specimen-images/12pt-lowerA.jpg";
locked = 1;
pos = (-82,-338);
scale = (10.7,10.7);
};
hints = (
{
name = _corner.rightBottomSerif;
origin = (0,0);
type = Corner;
}
);
layerId = m01;
shapes = (
{
closed = 1;
nodes = (
(405,0,l),
(405,394,ls),
(405,475,o),
(311,505,o),
(248,505,cs),
(172,505,o),
(76,449,o),
(76,369,cs),
(76,344,o),
(92,329,o),
(116,329,cs),
(139,329,o),
(154,344,o),
(154,369,cs),
(154,381,o),
(146,389,o),
(146,401,cs),
(146,437,o),
(188,470,o),
(241,470,cs),
(295,470,o),
(330,445,o),
(330,383,cs),
(330,0,l)
);
},
{
closed = 1;
nodes = (
(344,109,l),
(280,59,o),
(229,35,o),
(194,32,cs),
(158,29,o),
(132,59,o),
(132,113,cs),
(132,169,o),
(158,199,o),
(200,225,cs),
(233,245,o),
(271,255,o),
(350,279,c),
(344,316,l),
(288,298,o),
(235,280,o),
(192,265,cs),
(107,236,o),
(50,183,o),
(50,96,cs),
(50,37,o),
(106,-16,o),
(162,-17,cs),
(239,-19,o),
(310,41,o),
(359,87,c)
);
},
{
closed = 0;
nodes = (
(235,244,l),
(238,237,o),
(234,252,o),
(236,245,cs)
);
}
);
width = 528;
}
);
unicode = 97;
},
{
glyphname = b;
lastChange = "2025-03-05 18:59:18 +0000";
layers = (
{
backgroundImage = {
imagePath = "specimen-images/12pt-lowerB.jpg";
pos = (17,-337);
scale = (10.7,10.79);
};
hints = (
{
name = _cap.flag;
origin = (2,8);
type = Cap;
}
);
layerId = m01;
shapes = (
{
closed = 1;
nodes = (
(120,376,l),
(120,149,l)
);
},
{
closed = 0;
nodes = (
(122,11,l)
);
},
{
closed = 1;
nodes = (
(98,752,l),
(98,12,l),
(98,-6,o),
(118,-1,o),
(125,10,cs),
(139,32,o),
(162,43,o),
(177,54,c),
(177,752,l)
);
},
{
closed = 1;
nodes = (
(190,12,o),
(243,-10,o),
(298,-10,cs),
(427,-10,o),
(521,101,o),
(521,249,c),
(521,397,o),
(427,504,o),
(298,504,cs),
(192,504,o),
(151,412,o),
(117,340,c),
(145,326,l),
(181,420,o),
(228,465,o),
(299,465,cs),
(383,465,o),
(441,401,o),
(441,249,cs),
(441,96,o),
(387,29,o),
(299,29,cs),
(243,29,o),
(194,57,o),
(162,122,c),
(145,75,l)
);
}
);
width = 557;
}
);
unicode = 98;
},
{
glyphname = c;
lastChange = "2025-03-04 02:27:48 +0000";
layers = (
{
backgroundImage = {
imagePath = "specimen-images/12pt-lowerC.jpg";
locked = 1;
pos = (-5,-345);
scale = (10.7,10.7);
};
layerId = m01;
shapes = (
{
closed = 1;
nodes = (
(414,415,o),
(380,505,o),
(259,505,cs),
(130,505,o),
(40,386,o),
(40,252,cs),
(40,104,o),
(134,-13,o),
(263,-13,cs),
(335,-13,o),
(382,10,o),
(412,57,c),
(425,77,o),
(398,99,o),
(382,78,cs),
(347,30,o),
(319,27,o),
(262,27,cs),
(217,27,o),
(120,60,o),
(120,251,cs),
(120,419,o),
(170,466,o),
(258,466,cs),
(303,466,o),
(334,437,o),
(334,397,cs),
(334,375,o),
(352,357,o),
(374,357,cs),
(396,357,o),
(414,375,o),
(414,397,cs)
);
}
);
width = 450;
}
);
unicode = 99;
},
{
glyphname = d;
lastChange = "2025-03-04 02:28:36 +0000";
layers = (
{
backgroundImage = {
imagePath = "specimen-images/12pt-lowerC.jpg";
locked = 1;
pos = (20,-346);
scale = (10.7,10.7);
};
hints = (
{
name = _corner.rightBottomSerif;
origin = (1,2);
type = Corner;
},
{
name = _cap.flag;
origin = (1,3);
type = Cap;
}
);
layerId = m01;
shapes = (
{
closed = 1;
nodes = (
(404,376,l),
(404,149,l)
);
},
{
closed = 1;
nodes = (
(390,752,l),
(390,0,l),
(465,0,l),
(465,752,l)
);
},
{
closed = 1;
nodes = (
(399,122,l),
(367,57,o),
(318,29,o),
(262,29,cs),
(174,29,o),
(120,96,o),
(120,249,cs),
(120,401,o),
(178,465,o),
(262,465,cs),
(327,465,o),
(380,420,o),
(416,326,c),
(444,340,l),
(410,412,o),
(363,504,o),
(263,504,cs),
(134,504,o),
(40,397,o),
(40,249,c),
(40,101,o),
(134,-10,o),
(263,-10,cs),
(318,-10,o),
(371,12,o),
(416,75,c)
);
}
);
width = 588;
}
);
unicode = 100;
},
{
glyphname = e;
lastChange = "2025-03-04 02:36:20 +0000";
layers = (
{
backgroundImage = {
imagePath = "specimen-images/12pt-lowerE.jpg";
pos = (-8,-333);
scale = (10.7,10.7);
};
hints = (
{
place = (332,30);
type = Stem;
}
);
layerId = m01;
shapes = (
{
closed = 1;
nodes = (
(439,394,o),
(376,504,o),
(251,504,cs),
(122,504,o),
(40,385,o),
(40,243,cs),
(40,95,o),
(134,-13,o),
(263,-13,cs),
(335,-13,o),
(387,24,o),
(425,67,cs),
(440,83,o),
(418,108,o),
(402,91,cs),
(357,45,o),
(303,33,o),
(263,33,c),
(209,33,o),
(122,51,o),
(122,242,cs),
(122,408,o),
(172,461,o),
(250,461,cs),
(339,461,o),
(362,412,o),
(365,271,c),
(439,271,l)
);
},
{
closed = 1;
nodes = (
(116,271,l),
(376,271,l),
(376,306,l),
(116,306,l)
);
}
);
width = 474;
}
);
unicode = 101;
},
{
glyphname = f;
lastChange = "2025-03-04 02:41:59 +0000";
layers = (
{
backgroundImage = {
imagePath = "specimen-images/12pt-lowerF.jpg";
locked = 1;
pos = (41,-340);
scale = (10.7,10.7);
};
hints = (
{
name = _corner.leftBottomSerif;
origin = (0,32);
type = Corner;
},
{
name = _corner.rightBottomSerif;
origin = (0,33);
type = Corner;
}
);
layerId = m01;
shapes = (
{
closed = 1;
nodes = (
(228,431,l),
(332,431,ls),
(347,431,o),
(348,456,o),
(332,456,cs),
(228,456,l),
(228,456,l),
(211,500,o),
(172,723,o),
(227,723,cs),
(259,723,o),
(247,689,o),
(264,670,cs),
(280,652,o),
(305,652,o),
(319,665,cs),
(335,677,o),
(341,702,o),
(325,723,cs),
(309,744,o),
(268,757,o),
(238,752,cs),
(195,745,o),
(156,711,o),
(155,641,cs),
(153,456,l),
(153,456,l),
(49,456,ls),
(33,456,o),
(34,431,o),
(49,431,cs),
(153,431,l),
(153,4,l),
(228,4,l)
);
}
);
width = 381;
}
);
unicode = 102;
},
{
glyphname = g;
lastChange = "2025-03-04 02:42:19 +0000";
layers = (
{
backgroundImage = {
imagePath = "specimen-images/12pt-lowerE.jpg";
locked = 1;
pos = (30,-328);
scale = (10.7,10.7);
};
layerId = m01;
shapes = (
{
closed = 1;
nodes = (
(396,136,o),
(488,219,o),
(488,321,cs),
(488,422,o),
(396,505,o),
(290,505,cs),
(184,505,o),
(92,422,o),
(92,321,cs),
(92,217,o),
(187,136,o),
(290,136,cs)
);
},
{
closed = 1;
nodes = (
(224,166,o),
(174,201,o),
(173,321,c),
(173,321,ls),
(173,438,o),
(224,474,o),
(291,474,cs),
(359,474,o),
(408,439,o),
(408,321,cs),
(408,200,o),
(359,166,o),
(291,166,cs)
);
},
{
closed = 1;
nodes = (
(285,-42,ls),
(336,-53,o),
(476,-68,o),
(476,-125,cs),
(476,-180,o),
(404,-221,o),
(291,-221,cs),
(208,-221,o),
(109,-184,o),
(109,-115,cs),
(109,-68,o),
(187,-30,o),
(236,-3,c),
(205,12,l),
(143,-18,o),
(50,-54,o),
(50,-119,cs),
(50,-208,o),
(190,-253,o),
(287,-253,cs),
(384,-253,o),
(531,-219,o),
(531,-122,cs),
(531,12,o),
(293,32,o),
(194,55,cs),
(86,80,o),
(171,125,o),
(224,165,c),
(193,183,l),
(159,155,o),
(80,108,o),
(82,64,cs),
(83,34,o),
(115,-7,o),
(218,-28,cs)
);
},
{
closed = 1;
nodes = (
(548,433,o),
(563,448,o),
(563,465,cs),
(563,482,o),
(548,495,o),
(531,497,cs),
(488,502,o),
(452,477,o),
(427,442,c),
(445,424,l),
(452,431,o),
(457,446,o),
(477,446,cs),
(503,446,o),
(509,433,o),
(531,433,cs)
);
}
);
width = 590;
}
);
unicode = 103;
},
{
glyphname = h;
lastChange = "2025-03-04 02:42:28 +0000";
layers = (
{
hints = (
{
name = _corner.leftBottomSerif;
origin = (0,0);
type = Corner;
},
{
name = _corner.rightBottomSerif;
origin = (0,1);
type = Corner;
},
{
name = _corner.leftBottomSerif;
origin = (1,1);
type = Corner;
},
{
name = _corner.rightBottomSerif;
origin = (1,2);
type = Corner;
},
{
name = _cap.flag;
origin = (1,3);
type = Cap;
}
);
layerId = m01;
shapes = (
{
closed = 1;
nodes = (
(426,0,l),
(501,0,l),
(501,408,l),
(501,456,o),
(496,474,o),
(476,494,c),
(464,506,o),
(437,508,o),
(415,508,cs),
(345,508,o),
(232,450,o),
(176,419,c),
(186,386,l),
(214,400,o),
(241,414,o),
(270,428,cs),
(295,440,o),
(334,454,o),
(357,454,cs),
(379,454,o),
(397,447,o),
(410,432,c),
(419,421,o),
(426,411,o),
(426,383,c)
);
},
{
closed = 1;
nodes = (
(122,752,l),
(122,0,l),
(197,0,l),
(197,752,l)
);
},
{
closed = 0;
nodes = (
(466,407,l),
(466,408,l)
);
}
);
width = 618;
}
);
unicode = 104;
},
{
glyphname = i;
lastChange = "2025-03-03 21:30:29 +0000";
layers = (
{
backgroundImage = {
imagePath = "specimen-images/12pt-lowerI.jpg";
pos = (18,-345);
scale = (10.7,10.7);
};
hints = (
{
name = _corner.leftBottomSerif;
origin = (1,1);
type = Corner;
},
{
name = _corner.rightBottomSerif;
origin = (1,2);
type = Corner;
},
{
name = _cap.flag;
origin = (1,3);
type = Cap;
}
);
layerId = m01;
shapes = (
{
closed = 1;
nodes = (
(178,601,o),
(201,624,o),
(201,652,cs),
(201,680,o),
(178,702,o),
(151,702,cs),
(123,702,o),
(100,680,o),
(100,652,cs),
(100,624,o),
(123,601,o),
(151,601,cs)
);
},
{
closed = 1;
nodes = (
(122,511,l),
(122,0,l),
(197,0,l),
(197,511,l)
);
}
);
width = 320;
}
);
unicode = 105;
},
{
glyphname = j;
lastChange = "2025-03-04 02:42:59 +0000";
layers = (
{
backgroundImage = {
imagePath = "specimen-images/12pt-lowerJ.jpg";
locked = 1;
pos = (-40,-355);
scale = (10.7,10.7);
};
hints = (
{
name = _cap.flag;
origin = (2,3);
type = Cap;
}
);
layerId = m01;
shapes = (
{
closed = 1;
nodes = (
(147,601,o),
(170,624,o),
(170,652,cs),
(170,680,o),
(147,702,o),
(120,702,cs),
(92,702,o),
(69,680,o),
(69,652,cs),
(69,624,o),
(92,601,o),
(120,601,cs)
);
},
{
closed = 1;
nodes = (
(91,-140,l),
(91,-182,o),
(98,-237,o),
(66,-237,cs),
(40,-237,o),
(48,-212,o),
(41,-200,cs),
(36,-189,o),
(25,-181,o),
(13,-181,cs),
(-5,-181,o),
(-20,-197,o),
(-20,-218,cs),
(-20,-257,o),
(34,-264,o),
(65,-264,cs),
(105,-264,o),
(166,-236,o),
(166,-140,c)
);
},
{
closed = 1;
nodes = (
(91,505,l),
(91,-140,l),
(166,-140,l),
(166,505,l)
);
}
);
width = 220;
}
);
unicode = 106;
},
{
glyphname = k;
lastChange = "2025-03-04 02:43:36 +0000";
layers = (
{
backgroundImage = {
imagePath = "specimen-images/12pt-lowerK.jpg";
locked = 1;
pos = (10,-331);
scale = (10.7,10.7);
};
hints = (
{
name = _corner.leftBottomSerif;
origin = (0,1);
type = Corner;
},
{
name = _corner.rightBottomSerif;
origin = (0,2);
type = Corner;
},
{
name = _cap.flag;
origin = (0,3);
type = Cap;
},
{
name = _corner.leftBottomSerif;
origin = (1,1);
type = Corner;
},
{
name = _corner.rightBottomSerif;
options = 1;
origin = (1,2);
type = Corner;
}
);
layerId = m01;
shapes = (
{
closed = 1;
nodes = (
(122,752,l),
(122,0,l),
(197,0,l),
(197,752,l)
);
},
{
closed = 1;
nodes = (
(279,282,l),
(435,0,l),
(517,0,l),
(334,331,l)
);
},
{
closed = 1;
nodes = (
(156,210,l),
(184,188,l),
(461,440,l),
(473,450,o),
(498,477,o),
(537,477,c),
(550,477,o),
(550,493,o),
(537,493,cs),
(525,493,o),
(487,488,o),
(455,488,cs),
(420,488,o),
(392,493,o),
(375,493,cs),
(362,493,o),
(362,477,o),
(375,477,c),
(414,477,o),
(398,428,o),
(381,413,cs)
);
}
);
width = 611;
}
);
unicode = 107;
},
{
glyphname = l;
lastChange = "2025-03-05 18:58:56 +0000";
layers = (
{
hints = (
{
name = _corner.leftBottomSerif;
origin = (0,1);
type = Corner;
},
{
name = _corner.rightBottomSerif;
origin = (0,2);
type = Corner;
},
{
name = _cap.flag;
origin = (0,3);
type = Cap;
},
{
name = _cap.flag;
origin = (0,3);
target = (0,1);
type = Cap;
}
);
layerId = m01;
shapes = (
{
closed = 1;
nodes = (
(112,752,l),
(112,0,l),
(187,0,l),
(187,752,l)
);
}
);
width = 300;
}
);
unicode = 108;
},
{
glyphname = m;
lastChange = "2025-03-05 18:58:47 +0000";
layers = (
{
backgroundImage = {
imagePath = "specimen-images/12pt-lowerM.jpg";
pos = (0,-331);
scale = (10.7,10.7);
};
hints = (
{
name = _corner.leftBottomSerif;
origin = (0,1);
type = Corner;
},
{
name = _corner.rightBottomSerif;
origin = (0,2);
type = Corner;
},
{
name = _cap.flag;
origin = (0,3);
type = Cap;
},
{
name = _corner.leftBottomSerif;
origin = (2,0);
type = Corner;
},
{
name = _corner.rightBottomSerif;
origin = (2,1);
type = Corner;
},
{
name = _corner.leftBottomSerif;
origin = (3,0);
type = Corner;
},
{
name = _corner.rightBottomSerif;
origin = (3,1);
type = Corner;
}
);
layerId = m01;
shapes = (
{
closed = 1;
nodes = (
(112,504,l),
(112,0,l),
(183,0,l),
(183,504,l)
);
},
{
closed = 0;
nodes = (
(456,407,l),
(456,408,l)
);
},
{
closed = 1;
nodes = (
(383,0,l),
(458,0,l),
(458,408,l),
(458,456,o),
(453,474,o),
(433,494,c),
(421,506,o),
(394,508,o),
(372,508,cs),
(302,508,o),
(189,450,o),
(133,419,c),
(143,386,l),
(171,400,o),
(198,414,o),
(227,428,cs),
(252,440,o),
(291,454,o),
(314,454,cs),
(336,454,o),
(354,447,o),
(367,432,c),
(376,421,o),
(383,411,o),
(383,383,c)
);
},
{
closed = 1;
nodes = (
(669,0,l),
(744,0,l),
(744,408,l),
(744,456,o),
(739,474,o),
(719,494,c),
(707,506,o),
(680,508,o),
(658,508,cs),
(588,508,o),
(475,450,o),
(419,419,c),
(429,386,l),
(457,400,o),
(484,414,o),
(513,428,cs),
(538,440,o),
(577,454,o),
(600,454,cs),
(622,454,o),
(640,447,o),
(653,432,c),
(662,421,o),
(669,411,o),
(669,383,c)
);
}
);
width = 853;
}
);
unicode = 109;
},
{
glyphname = n;
lastChange = "2025-03-05 18:57:51 +0000";
layers = (
{
anchors = (
{
name = bottom;
pos = (322,0);
}
);
backgroundImage = {
imagePath = "specimen-images/12pt-lowerN.jpg";
locked = 1;
pos = (22,-326);
scale = (10.7,10.7);
};
hints = (
{
name = _corner.leftBottomSerif;
origin = (1,1);
type = Corner;
},
{
name = _corner.rightBottomSerif;
origin = (1,2);
type = Corner;
},
{
name = _corner.leftBottomSerif;
origin = (0,0);
type = Corner;
},
{
name = _corner.rightBottomSerif;
origin = (0,1);
type = Corner;
},
{
name = _cap.flag;
origin = (1,3);
type = Cap;
}
);
layerId = m01;
shapes = (
{
closed = 1;
nodes = (
(416,0,l),
(491,0,l),
(491,408,l),
(491,456,o),
(486,474,o),
(466,494,c),
(454,506,o),
(427,508,o),
(405,508,cs),
(335,508,o),
(222,450,o),
(166,419,c),
(176,386,l),
(204,400,o),
(231,414,o),
(260,428,cs),
(285,440,o),
(324,454,o),
(347,454,cs),
(369,454,o),
(387,447,o),
(400,432,c),
(409,421,o),
(416,411,o),
(416,383,c)
);
},
{
closed = 1;
nodes = (
(112,504,l),
(112,0,l),
(187,0,l),
(187,504,l)
);
},
{
closed = 0;
nodes = (
(456,407,l),
(456,408,l)
);
}
);
width = 600;
}
);
unicode = 110;
},
{
glyphname = o;
lastChange = "2025-03-05 18:57:17 +0000";
layers = (
{
backgroundImage = {
imagePath = "specimen-images/12pt-lowerO.jpg";
locked = 1;
pos = (-19,-326);
scale = (10.7,10.7);
};
layerId = m01;
shapes = (
{
closed = 1;
nodes = (
(414,74,o),
(347,25,o),
(262,25,cs),
(177,25,o),
(110,74,o),
(110,246,cs),
(110,418,o),
(177,467,o),
(262,467,cs),
(347,467,o),
(414,418,o),
(414,246,cs)
);
},
{
closed = 1;
nodes = (
(30,99,o),
(134,-14,o),
(262,-14,cs),
(390,-14,o),
(494,99,o),
(494,246,cs),
(494,393,o),
(390,506,o),
(262,506,cs),
(134,506,o),
(30,393,o),
(30,246,cs)
);
}
);
width = 524;
}
);
metricRight = "=|";
unicode = 111;
},
{
glyphname = p;
lastChange = "2025-03-04 02:43:55 +0000";
layers = (
{
backgroundImage = {
imagePath = "specimen-images/12pt-lowerP.jpg";
locked = 1;
pos = (30,-335);
scale = (10.7,10.7);
};
guides = (
{
angle = 244.7223;
pos = (153,376);
}
);
hints = (
{
name = _corner.leftBottomSerif;
origin = (0,1);
type = Corner;
},
{
name = _corner.rightBottomSerif;
origin = (0,2);
type = Corner;
},
{
name = _cap.flag;
origin = (0,3);
type = Cap;
}
);
layerId = m01;
shapes = (
{
closed = 1;
nodes = (
(122,504,l),
(122,-254,l),
(197,-254,l),
(197,504,l)
);
},
{
closed = 1;
nodes = (
(209,12,o),
(262,-10,o),
(317,-10,cs),
(446,-10,o),
(540,101,o),
(540,249,c),
(540,397,o),
(446,504,o),
(317,504,cs),
(217,504,o),
(170,412,o),
(136,340,c),
(164,326,l),
(200,406,o),
(253,465,o),
(318,465,cs),
(402,465,o),
(460,401,o),
(460,249,cs),
(460,96,o),
(406,29,o),
(318,29,cs),
(262,29,o),
(213,57,o),
(181,122,c),
(164,75,l)
);
}
);
width = 580;
}
);
unicode = 112;
},
{
glyphname = q;
lastChange = "2025-03-04 02:44:37 +0000";
layers = (
{
backgroundImage = {
imagePath = "specimen-images/12pt-lowerQ.jpg";
locked = 1;
pos = (6,-333);
scale = (10.7,10.7);
};
hints = (
{
name = _corner.rightBottomSerif;
origin = (1,1);
type = Corner;
},
{
name = _corner.leftBottomSerif;
options = 1;
origin = (0,1);
scale = (1,-1);
type = Corner;
},
{
name = _corner.leftBottomSerif;
origin = (0,0);
type = Corner;
}
);
layerId = m01;
shapes = (
{
closed = 1;
nodes = (
(390,-254,l),
(465,-254,l),
(465,404,l),
(465,438,o),
(469,467,o),
(469,485,c),
(469,501,o),
(464,504,o),
(452,504,c),
(437,504,o),
(421,491,o),
(404,478,c),
(381,460,o),
(354,457,o),
(343,457,c),
(390,399,l)
);
},
{
closed = 1;
nodes = (
(404,122,l),
(372,57,o),
(323,29,o),
(267,29,cs),
(179,29,o),
(125,96,o),
(125,249,cs),
(125,401,o),
(183,465,o),
(267,465,cs),
(332,465,o),
(385,420,o),
(421,326,c),
(449,340,l),
(415,412,o),
(368,504,o),
(268,504,cs),
(139,504,o),
(45,397,o),
(45,249,c),
(45,101,o),
(139,-10,o),
(268,-10,cs),
(323,-10,o),
(376,12,o),
(421,75,c)
);
}
);
width = 557;
}
);
unicode = 113;
},
{
glyphname = r;
lastChange = "2025-03-04 02:44:43 +0000";
layers = (
{
backgroundImage = {
imagePath = "specimen-images/12pt-lowerR.jpg";
locked = 1;
pos = (30,-334);
scale = (10.7,10.7);
};
hints = (
{
name = _corner.leftBottomSerif;
origin = (0,1);
type = Corner;
},
{
name = _corner.rightBottomSerif;
origin = (0,2);
type = Corner;
},
{
name = _cap.flag;
origin = (0,3);
type = Cap;
}
);
layerId = m01;
shapes = (
{
closed = 1;
nodes = (
(122,504,l),
(122,0,l),
(197,0,l),
(197,504,l)
);
},
{
closed = 1;
nodes = (
(359,420,o),
(378,439,o),
(378,463,cs),
(378,486,o),
(359,505,o),
(336,505,cs),
(305,505,o),
(277,492,o),
(257,478,cs),
(231,460,o),
(214,438,o),
(191,408,c),
(191,386,l),
(214,409,o),
(231,427,o),
(259,434,cs),
(279,439,o),
(310,421,o),
(336,420,cs)
);
}
);
width = 418;
}
);
unicode = 114;
},
{
glyphname = s;
lastChange = "2025-03-04 02:44:57 +0000";
layers = (
{
backgroundImage = {
imagePath = "specimen-images/12pt-lowerS.jpg";
locked = 1;
pos = (18,-336);
scale = (10.7,10.7);
};
layerId = m01;
shapes = (
{
closed = 1;
nodes = (
(120,260,o),
(45,300,o),
(45,376,cs),
(45,472,o),
(133,506,o),
(203,506,cs),
(269,506,o),
(325,480,o),
(347,469,c),
(347,368,ls),
(347,361,o),
(341,357,o),
(336,357,cs),
(330,357,o),
(324,361,o),
(323,368,cs),
(310,423,o),
(256,474,o),
(203,474,cs),
(147,474,o),
(96,450,o),
(96,402,cs),
(96,354,o),
(145,341,o),
(226,295,cs),
(298,254,o),
(381,218,o),
(381,133,cs),
(381,28,o),
(284,-15,o),
(206,-15,cs),
(133,-15,o),
(71,14,o),
(46,27,c),
(46,138,ls),
(46,147,o),
(54,151,o),
(61,151,cs),
(65,151,o),
(69,149,o),
(71,146,cs),
(103,76,o),
(129,20,o),
(206,20,cs),
(255,20,o),
(328,41,o),
(328,100,cs),
(328,129,o),
(307,153,o),
(281,173,cs),
(245,200,o),
(201,218,o),
(184,227,cs)
);
}
);
width = 426;
},
{
associatedMasterId = m01;
backgroundImage = {
imagePath = "specimen-images/12pt-lowerS.jpg";
locked = 1;
pos = (12,-336);
scale = (10.7,10.7);
};
layerId = "CE4735F0-D95C-42DD-B14C-6ADB4FC847E9";
name = "Feb 26, 25 at 09:46";
shapes = (
{
closed = 1;
nodes = (
(40,142,ls),
(40,156,o),
(51,169,o),
(55,160,cs),
(66,136,o),
(77,97,o),
(109,68,cs),
(132,47,o),
(154,34,o),
(200,34,cs),
(249,34,o),
(322,51,o),
(322,110,cs),
(322,169,o),
(255,188,o),
(192,220,cs),
(103,265,o),
(49,288,o),
(49,376,cs),
(49,464,o),
(130,504,o),
(194,504,cs),
(250,504,o),
(308,470,o),
(338,449,c),
(338,366,ls),
(338,352,o),
(326,356,o),
(323,366,cs),
(317,385,o),
(307,408,o),
(280,431,cs),
(262,446,o),
(240,459,o),
(194,459,cs),
(130,459,o),
(103,433,o),
(103,395,cs),
(103,344,o),
(157,332,o),
(217,297,cs),
(287,256,o),
(375,219,o),
(375,133,cs),
(375,28,o),
(278,-11,o),
(200,-11,cs),
(127,-11,o),
(65,18,o),
(40,31,c)
);
}
);
width = 399;
},
{
associatedMasterId = m01;
backgroundImage = {
imagePath = "specimen-images/12pt-lowerS.jpg";
locked = 1;
pos = (12,-336);
scale = (10.7,10.7);
};
layerId = "C02F5396-6023-4723-860F-4A7102BF87D8";
name = "Feb 26, 25 at 10:30";
shapes = (
{
closed = 1;
nodes = (
(40,142,ls),
(40,156,o),
(51,169,o),
(55,160,cs),
(66,136,o),
(77,97,o),
(109,68,cs),
(132,47,o),
(154,34,o),
(200,34,cs),
(249,34,o),
(322,51,o),
(322,110,cs),
(322,169,o),
(255,188,o),
(192,220,cs),
(103,265,o),
(49,288,o),
(49,376,cs),
(49,464,o),
(130,504,o),
(194,504,cs),
(250,504,o),
(308,470,o),
(338,449,c),
(338,366,ls),
(338,352,o),
(326,356,o),
(323,366,cs),
(317,385,o),
(307,408,o),
(280,431,cs),
(262,446,o),
(240,459,o),
(194,459,cs),
(130,459,o),
(103,433,o),
(103,395,cs),
(103,344,o),
(157,332,o),
(217,297,cs),
(287,256,o),
(375,219,o),
(375,133,cs),
(375,28,o),
(278,-11,o),
(200,-11,cs),
(127,-11,o),
(65,18,o),
(40,31,c)
);
},
{
closed = 1;
nodes = (
(40,142,ls),
(40,156,o),
(51,169,o),
(55,160,cs),
(66,136,o),
(77,97,o),
(109,68,cs),
(132,47,o),
(154,34,o),
(200,34,cs),
(249,34,o),
(322,51,o),
(322,110,cs),
(322,169,o),
(255,188,o),
(192,220,cs),
(103,265,o),
(49,288,o),
(49,376,cs),
(49,464,o),
(130,504,o),
(194,504,cs),
(250,504,o),
(308,470,o),
(338,449,c),
(338,366,ls),
(338,352,o),
(326,356,o),
(323,366,cs),
(317,385,o),
(307,408,o),
(280,431,cs),
(262,446,o),
(240,459,o),
(194,459,cs),
(130,459,o),
(103,433,o),
(103,395,cs),
(103,344,o),
(157,332,o),
(217,297,cs),
(287,256,o),
(375,219,o),
(375,133,cs),
(375,28,o),
(278,-11,o),
(200,-11,cs),
(127,-11,o),
(65,18,o),
(40,31,c)
);
}
);
width = 399;
}
);
unicode = 115;
},
{
glyphname = t;
lastChange = "2025-03-04 02:45:03 +0000";
layers = (
{
backgroundImage = {
imagePath = "specimen-images/12pt-lowerT.jpg";
locked = 1;
pos = (31,-334);
scale = (10.7,10.7);
};
layerId = m01;
shapes = (
{
closed = 1;
nodes = (
(210,456,l),
(210,682,ls),
(210,715,o),
(166,715,o),
(166,682,cs),
(166,602,o),
(180,456,o),
(52,456,cs),
(36,456,o),
(37,431,o),
(52,431,cs),
(135,431,l),
(135,104,l),
(210,104,l),
(210,431,l),
(314,431,ls),
(329,431,o),
(330,456,o),
(314,456,cs)
);
},
{
closed = 1;
nodes = (
(135,21,o),
(169,-16,o),
(244,-16,cs),
(311,-16,o),
(330,41,o),
(334,49,cs),
(343,68,o),
(330,78,o),
(320,66,cs),
(312,57,o),
(295,31,o),
(252,31,cs),
(209,31,o),
(210,70,o),
(210,104,c),
(135,104,l)
);
},
{
closed = 0;
nodes = (
(124,36,l)
);
}
);
width = 387;
}
);
unicode = 116;
},
{
glyphname = u;
lastChange = "2025-03-04 02:45:28 +0000";
layers = (
{
backgroundImage = {
imagePath = "specimen-images/12pt-lowerU.jpg";
pos = (35,-331);
scale = (10.7,10.7);
};
hints = (
{
name = _corner.rightBottomSerif;
origin = (1,0);
type = Corner;
},
{
name = _cap.flag;
origin = (0,0);
type = Cap;
},
{
name = _cap.flag;
origin = (1,1);
type = Cap;
}
);
layerId = m01;
shapes = (
{
closed = 1;
nodes = (
(181,505,l),
(106,505,l),
(106,80,l),
(106,32,o),
(114,16,o),
(134,-4,c),
(146,-16,o),
(166,-20,o),
(188,-20,cs),
(258,-20,o),
(379,69,o),
(435,106,c),
(419,147,l),
(355,99,ls),
(332,82,o),
(277,53,o),
(250,49,cs),
(228,46,o),
(205,44,o),
(192,59,cs),
(183,70,o),
(181,92,o),
(181,120,c)
);
},
{
closed = 1;
nodes = (
(475,0,l),
(475,506,l),
(400,506,l),
(400,0,l)
);
},
{
closed = 0;
nodes = (
(127,81,l),
(127,80,l)
);
}
);
width = 592;
}
);
unicode = 117;
},
{
glyphname = v;
lastChange = "2025-03-04 02:46:11 +0000";
layers = (
{
backgroundImage = {
imagePath = "specimen-images/12pt-lowerV.jpg";
locked = 1;
pos = (23,-331);
scale = (10.7,10.7);
};
hints = (
{
name = _corner.rightBottomSerif;
options = 1;
origin = (0,8);
type = Corner;
},
{
name = _corner.leftBottomSerif;
origin = (0,7);
type = Corner;
},
{
name = _corner.rightBottomSerif;
options = 1;
origin = (0,5);
type = Corner;
},
{
name = _corner.leftBottomSerif;
origin = (0,4);
type = Corner;
}
);
layerId = m01;
shapes = (
{
closed = 1;
nodes = (
(262,0,ls),
(270,-22,o),
(317,-22,o),
(325,0,cs),
(512,494,l),
(463,494,l),
(310,76,l),
(157,494,l),
(77,494,l)
);
}
);
width = 576;
}
);
unicode = 118;
},
{
glyphname = w;
lastChange = "2025-03-03 21:30:29 +0000";
layers = (
{
backgroundImage = {
imagePath = "specimen-images/12pt-lowerW.jpg";
locked = 1;
pos = (74,-331);
scale = (10.7,10.7);
};
hints = (
{
name = _corner.leftBottomSerif;
origin = (1,2);
type = Corner;
},
{
name = _corner.rightBottomSerif;
options = 1;
origin = (1,3);
type = Corner;
},
{
name = _corner.leftBottomSerif;
origin = (1,2);
type = Corner;
},
{
name = _corner.rightBottomSerif;
options = 1;
origin = (1,3);
type = Corner;
},
{
name = _corner.leftBottomSerif;
origin = (0,4);
type = Corner;
},
{
name = _corner.rightBottomSerif;
options = 1;
origin = (0,5);
type = Corner;
},
{
name = _corner.leftBottomSerif;
origin = (0,7);
type = Corner;
},
{
name = _corner.rightBottomSerif;
options = 1;
origin = (0,8);
type = Corner;
}
);
layerId = m01;
shapes = (
{
closed = 1;
nodes = (
(568,9,ls),
(579,-23,o),
(624,-19,o),
(634,9,cs),
(806,494,l),
(759,494,l),
(618,76,l),
(477,494,l),
(396,494,l)
);
},
{
closed = 1;
nodes = (
(463,388,l),
(350,76,l),
(197,494,l),
(117,494,l),
(299,9,ls),
(311,-23,o),
(351,-22,o),
(362,9,cs),
(491,353,l)
);
}
);
width = 911;
}
);
unicode = 119;
},
{
glyphname = x;
lastChange = "2025-03-03 21:30:29 +0000";
layers = (
{
backgroundImage = {
imagePath = "specimen-images/12pt-lowerX.jpg";
locked = 1;
pos = (68,-331);
scale = (10.7,10.7);
};
hints = (
{
name = _corner.leftBottomSerif;
origin = (0,0);
type = Corner;
},
{
name = _corner.rightBottomSerif;
options = 1;
origin = (0,1);
type = Corner;
},
{
name = _corner.leftBottomSerif;
origin = (0,2);
type = Corner;
},
{
name = _corner.rightBottomSerif;
options = 1;
origin = (0,3);
type = Corner;
},
{
name = _corner.rightBottomSerif;
origin = (1,1);
scale = (-1,1);
type = Corner;
},
{
name = _corner.rightBottomSerif;
options = 1;
origin = (1,2);
type = Corner;
},
{
name = _corner.rightBottomSerif;
origin = (2,1);
scale = (-1,1);
type = Corner;
},
{
name = _corner.rightBottomSerif;
options = 1;
origin = (2,2);
type = Corner;
}
);
layerId = m01;
shapes = (
{
closed = 1;
nodes = (
(227,494,l),
(138,494,l),
(447,0,l),
(535,0,l)
);
},
{
closed = 1;
nodes = (
(351,243,l),
(531,494,l),
(469,494,l),
(311,262,l)
);
},
{
closed = 1;
nodes = (
(302,251,l),
(111,0,l),
(178,0,l),
(342,227,l)
);
}
);
width = 648;
}
);
unicode = 120;
},
{
glyphname = y;
lastChange = "2025-03-04 02:46:34 +0000";
layers = (
{
backgroundImage = {
imagePath = "specimen-images/12pt-lowerY.jpg";
locked = 1;
pos = (20,-342);
scale = (10.7,10.7);
};
hints = (
{
name = _corner.leftBottomSerif;
origin = (0,12);
type = Corner;
},
{
name = _corner.rightBottomSerif;
options = 1;
origin = (0,13);
type = Corner;
},
{
name = _corner.leftBottomSerif;
origin = (1,2);
type = Corner;
},
{
name = _corner.rightBottomSerif;
options = 1;
origin = (1,3);
type = Corner;
}
);
layerId = m01;
shapes = (
{
closed = 1;
nodes = (
(72,-164,o),
(52,-158,o),
(29,-176,cs),
(4,-196,o),
(5,-228,o),
(25,-245,cs),
(45,-262,o),
(58,-269,o),
(101,-269,cs),
(163,-269,o),
(217,-249,o),
(251,-169,cs),
(533,494,l),
(475,494,l),
(231,-124,l),
(193,-200,o),
(176,-217,o),
(144,-217,c),
(103,-217,o),
(105,-192,o),
(90,-179,cs)
);
},
{
closed = 1;
nodes = (
(305,50,l),
(312,86,l),
(159,494,l),
(80,494,l),
(282,-48,l)
);
}
);
width = 595;
}
);
unicode = 121;
},
{
glyphname = z;
lastChange = "2025-03-03 21:30:29 +0000";
layers = (
{
backgroundImage = {
imagePath = "specimen-images/12pt-lowerZ.jpg";
locked = 1;
pos = (51,-332);
scale = (10.7,10.7);
};
layerId = m01;
shapes = (
{
closed = 0;
nodes = (
(356,470,l),
(356,470,l)
);
},
{
closed = 1;
nodes = (
(204,459,ls),
(189,459,o),
(156,437,o),
(108,376,cs),
(100,365,o),
(74,376,o),
(81,389,cs),
(103,430,o),
(111,441,o),
(125,485,cs),
(127,490,o),
(128,494,o),
(133,494,cs),
(463,494,l),
(148,32,l),
(341,36,ls),
(356,36,o),
(389,57,o),
(437,118,cs),
(445,129,o),
(471,118,o),
(464,105,cs),
(442,64,o),
(434,53,o),
(420,9,cs),
(418,4,o),
(417,0,o),
(412,0,cs),
(50,0,l),
(50,24,l),
(356,470,l),
(360,459,l)
);
}
);
width = 515;
}
);
unicode = 122;
},
{
glyphname = period;
lastChange = "2025-03-03 21:30:29 +0000";
layers = (
{
layerId = m01;
shapes = (
{
closed = 1;
nodes = (
(142,-12,o),
(169,15,o),
(169,48,cs),
(169,81,o),
(142,107,o),
(110,107,cs),
(77,107,o),
(50,81,o),
(50,48,cs),
(50,15,o),
(77,-12,o),
(110,-12,cs)
);
}
);
width = 219;
}
);
unicode = 46;
},
{
export = 0;
glyphname = _cap.flag;
lastChange = "2025-03-03 21:30:29 +0000";
layers = (
{
anchors = (
{
name = origin;
pos = (187,505);
}
);
layerId = m01;
shapes = (
{
closed = 0;
nodes = (
(187,405,ls),
(187,439,o),
(191,468,o),
(191,486,cs),
(191,502,o),
(186,505,o),
(174,505,cs),
(159,505,o),
(143,492,o),
(126,479,cs),
(103,461,o),
(76,458,o),
(65,458,cs),
(55,458,o),
(50,452,o),
(50,445,cs),
(50,439,o),
(55,432,o),
(65,432,cs),
(104,432,o),
(112,416,o),
(112,400,cs)
);
}
);
width = 241;
}
);
},
{
export = 0;
glyphname = _corner.leftBottomSerif;
lastChange = "2025-03-03 21:30:29 +0000";
layers = (
{
anchors = (
{
name = left;
pos = (122,48);
},
{
name = origin;
pos = (124,0);
},
{
name = right;
pos = (158,0);
}
);
layerId = m01;
shapes = (
{
closed = 0;
nodes = (
(122,64,l),
(122,48,o),
(104,32,o),
(65,32,cs),
(45,32,o),
(45,0,o),
(65,0,c),
(104,0,o),
(124,5,o),
(158,5,c)
);
}
);
width = 208;
}
);
},
